<?xml version="1.0" encoding="UTF-8" standalone="no"?>
<!-- Created with Inkscape (http://www.inkscape.org/) -->

<svg
   xmlns:dc="http://purl.org/dc/elements/1.1/"
   xmlns:cc="http://creativecommons.org/ns#"
   xmlns:rdf="http://www.w3.org/1999/02/22-rdf-syntax-ns#"
   xmlns:svg="http://www.w3.org/2000/svg"
   xmlns="http://www.w3.org/2000/svg"
   xmlns:sodipodi="http://sodipodi.sourceforge.net/DTD/sodipodi-0.dtd"
   xmlns:inkscape="http://www.inkscape.org/namespaces/inkscape"
   width="256"
   height="256"
   viewBox="0 0 67.733335 67.733333"
   version="1.1"
   id="svg7448"
   inkscape:version="0.92.1 unknown"
   sodipodi:docname="lliurex-store.svg">
  <defs
     id="defs7442">
    <linearGradient
       gradientTransform="matrix(0.9954,0,0,-0.9999,607.6064,666.5718)"
       y2="666.56842"
       x2="-460.2334"
       y1="370.53909"
       x1="-460.2334"
       gradientUnits="userSpaceOnUse"
       id="rect3438-6-0-6-7-2_60_-80">
      <stop
         id="stop29185"
         style="stop-color:#000000"
         offset="0" />
      <stop
         id="stop29187"
         style="stop-color:#000000;stop-opacity:0.5882"
         offset="1" />
    </linearGradient>
    <linearGradient
       gradientTransform="matrix(0.9867,0,0,-0.9918,595.6101,662.6824)"
       y2="668.2168"
       x2="-452.13281"
       y1="371.53421"
       x1="-452.13281"
       gradientUnits="userSpaceOnUse"
       id="rect3438-6-0-1-1_60_-262">
      <stop
         id="stop29191"
         style="stop-color:#000000"
         offset="0" />
      <stop
         id="stop29193"
         style="stop-color:#000000;stop-opacity:0.5882"
         offset="1" />
    </linearGradient>
    <linearGradient
       gradientTransform="matrix(0.9996,0,0,-0.9996,-616.0945,-74.9999)"
       y2="-366.80859"
       x2="765.62701"
       y1="-74.489304"
       x1="765.62701"
       gradientUnits="userSpaceOnUse"
       id="XMLID_140_-06">
      <stop
         id="stop29198"
         style="stop-color:#006cf9;stop-opacity:1"
         offset="0" />
      <stop
         id="stop29200"
         style="stop-color:#0053c2;stop-opacity:1"
         offset="0.3475" />
      <stop
         id="stop29202"
         style="stop-color:#0047a6;stop-opacity:1"
         offset="0.6063" />
      <stop
         id="stop29204"
         style="stop-color:#003884;stop-opacity:1"
         offset="0.8413" />
      <stop
         id="stop29206"
         style="stop-color:#003580;stop-opacity:1"
         offset="1" />
    </linearGradient>
  </defs>
  <sodipodi:namedview
     id="base"
     pagecolor="#ffffff"
     bordercolor="#666666"
     borderopacity="1.0"
     inkscape:pageopacity="0.0"
     inkscape:pageshadow="2"
     inkscape:zoom="0.91426697"
     inkscape:cx="171.13853"
     inkscape:cy="28.595543"
     inkscape:document-units="mm"
     inkscape:current-layer="layer1"
     showgrid="false"
     fit-margin-top="0"
     fit-margin-left="0"
     fit-margin-right="0"
     fit-margin-bottom="0"
     inkscape:window-width="1920"
     inkscape:window-height="1006"
     inkscape:window-x="0"
     inkscape:window-y="25"
     inkscape:window-maximized="1"
     units="px" />
  <metadata
     id="metadata7445">
    <rdf:RDF>
      <cc:Work
         rdf:about="">
        <dc:format>image/svg+xml</dc:format>
        <dc:type
           rdf:resource="http://purl.org/dc/dcmitype/StillImage" />
        <dc:title></dc:title>
      </cc:Work>
    </rdf:RDF>
  </metadata>
  <g
     inkscape:label="Capa 1"
     inkscape:groupmode="layer"
     id="layer1"
     transform="translate(-42.060823,-59.097487)">
    <g
       id="g8111"
       transform="translate(4.867966,-4.4644178)">
      <g
         transform="matrix(0.19825528,0,0,0.19825528,41.441077,68.13338)"
         id="XMLID_2056_">
        <linearGradient
           id="linearGradient7404"
           gradientUnits="userSpaceOnUse"
           x1="-460.2334"
           y1="370.53909"
           x2="-460.2334"
           y2="666.56842"
           gradientTransform="matrix(0.9954,0,0,-0.9999,607.6064,666.5718)">
          <stop
             offset="0"
             style="stop-color:#000000"
             id="stop7400" />
          <stop
             offset="1"
             style="stop-color:#000000;stop-opacity:0.5882"
             id="stop7402" />
        </linearGradient>
        <path
           inkscape:connector-curvature="0"
           id="rect3438-6-0-6-7-2_30_"
           enable-background="new    "
           d="m 71.088,0.07 h 156.804 c 37.43,0 67.773,30.583 67.773,68.308 v 159.384 c 0,37.725 -30.344,68.308 -67.773,68.308 H 71.088 C 33.657,296.07 3.315,265.487 3.315,227.762 V 68.378 C 3.314,30.652 33.657,0.07 71.088,0.07 Z"
           style="opacity:0.45;fill:url(#rect3438-6-0-6-7-2_60_-80)" />
        <linearGradient
           id="linearGradient7411"
           gradientUnits="userSpaceOnUse"
           x1="-452.13281"
           y1="371.53421"
           x2="-452.13281"
           y2="668.2168"
           gradientTransform="matrix(0.9867,0,0,-0.9918,595.6101,662.6824)">
          <stop
             offset="0"
             style="stop-color:#000000"
             id="stop7407" />
          <stop
             offset="1"
             style="stop-color:#000000;stop-opacity:0.5882"
             id="stop7409" />
        </linearGradient>
        <path
           inkscape:connector-curvature="0"
           id="rect3438-6-0-1-1_30_"
           enable-background="new    "
           d="m 71.812,-0.055 h 155.354 c 37.127,0 67.225,30.401 67.225,67.903 V 226.29 c 0,37.502 -30.098,67.904 -67.225,67.904 H 71.812 C 34.685,294.194 4.588,263.792 4.588,226.29 V 67.849 C 4.589,30.347 34.686,-0.055 71.812,-0.055 Z"
           style="opacity:0.45;fill:url(#rect3438-6-0-1-1_60_-262)" />
        <g
           id="rect3438-6_30_">
          <linearGradient
             id="linearGradient7424"
             gradientUnits="userSpaceOnUse"
             x1="765.62701"
             y1="-74.489304"
             x2="765.62701"
             y2="-366.80859"
             gradientTransform="matrix(0.9996,0,0,-0.9996,-616.0945,-74.9999)">
            <stop
               offset="0"
               style="stop-color:#006cf9;stop-opacity:1"
               id="stop7414" />
            <stop
               offset="0.3475"
               style="stop-color:#0053c2;stop-opacity:1"
               id="stop7416" />
            <stop
               offset="0.6063"
               style="stop-color:#0047a6;stop-opacity:1"
               id="stop7418" />
            <stop
               offset="0.8413"
               style="stop-color:#003884;stop-opacity:1"
               id="stop7420" />
            <stop
               offset="1"
               style="stop-color:#003580;stop-opacity:1"
               id="stop7422" />
          </linearGradient>
          <path
             inkscape:connector-curvature="0"
             id="XMLID_3584_"
             d="m 70.557,-0.54 h 157.341 c 37.239,0 67.431,30.19 67.431,67.431 V 224.23 c 0,37.241 -30.191,67.432 -67.431,67.432 H 70.557 c -37.24,0 -67.431,-30.19 -67.431,-67.432 V 66.891 C 3.126,29.65 33.316,-0.54 70.557,-0.54 Z"
             style="fill:url(#XMLID_140_-06)" />
        </g>
      </g>
      <g
         transform="matrix(1.0399107,0,0,1.0399107,-638.82888,305.01207)"
         id="g7378">
        <path
           style="opacity:0.4;fill:#000000;fill-opacity:1;fill-rule:evenodd;stroke:none;stroke-width:0.10413739px;stroke-linecap:butt;stroke-linejoin:miter;stroke-opacity:1"
           d="m 682.61881,-221.99901 a 10.636973,10.636973 0 0 0 -10.44895,8.68216 c -1.70281,-0.15669 -3.38495,-0.35421 -5.01677,-0.6103 l -2.21279,32.69206 h 35.40665 l -2.21332,-32.69206 c -1.54268,0.21388 -3.25025,0.40566 -5.07307,0.56534 a 10.636973,10.636973 0 0 0 -10.44175,-8.6372 z m 0,0.37827 a 10.258792,10.258792 0 0 1 10.05882,8.28993 c -6.01522,0.50746 -13.24504,0.65329 -20.13106,0.0486 a 10.258792,10.258792 0 0 1 10.07224,-8.33851 z"
           id="path4503-0-2"
           inkscape:connector-curvature="0" />
        <path
           style="opacity:0.2;fill:#000000;fill-opacity:1;fill-rule:evenodd;stroke:none;stroke-width:0.10413739px;stroke-linecap:butt;stroke-linejoin:miter;stroke-opacity:1"
           d="m 682.61881,-221.62483 a 10.636973,10.636973 0 0 0 -10.44895,8.68216 c -1.70281,-0.15669 -3.38495,-0.35421 -5.01677,-0.6103 l -2.21279,32.69206 h 35.40665 l -2.21332,-32.69206 c -1.54268,0.21388 -3.25025,0.40566 -5.07307,0.56534 a 10.636973,10.636973 0 0 0 -10.44175,-8.6372 z m 0,0.37827 a 10.258792,10.258792 0 0 1 10.05882,8.28993 c -6.01522,0.50746 -13.24504,0.65329 -20.13106,0.0486 a 10.258792,10.258792 0 0 1 10.07224,-8.33851 z"
           id="path4503-0"
           inkscape:connector-curvature="0" />
        <g
           id="g6945"
           transform="matrix(0.64756322,0,0,0.64756322,299.40789,-58.499844)">
          <g
             transform="translate(-1.3229167,-0.79375)"
             id="g6107">
            <path
               style="fill:#ffffff;fill-opacity:1;fill-rule:evenodd;stroke:none;stroke-width:0.16081426px;stroke-linecap:butt;stroke-linejoin:miter;stroke-opacity:1"
               d="m 569.21387,-239.91334 -3.4173,50.48481 h 54.67685 l -3.4173,-50.48481 c -12.41272,1.72091 -31.64285,2.54228 -47.84225,0 z"
               id="path4503"
               inkscape:connector-curvature="0"
               sodipodi:nodetypes="ccccc" />
            <g
               id="g5308"
               transform="translate(168.52882,-16.276715)">
              <circle
                 r="2.4039876"
                 cy="-219.47789"
                 cx="408.43533"
                 id="path4632"
                 style="color:#000000;clip-rule:nonzero;display:inline;overflow:visible;visibility:visible;opacity:1;isolation:auto;mix-blend-mode:normal;color-interpolation:sRGB;color-interpolation-filters:linearRGB;solid-color:#000000;solid-opacity:1;fill:#404040;fill-opacity:1;fill-rule:nonzero;stroke:none;stroke-width:0.24725468;stroke-linecap:butt;stroke-linejoin:round;stroke-miterlimit:4;stroke-dasharray:none;stroke-dashoffset:0;stroke-opacity:1;color-rendering:auto;image-rendering:auto;shape-rendering:auto;text-rendering:auto;enable-background:accumulate" />
              <circle
                 r="2.4039876"
                 cy="-219.47789"
                 cx="440.77701"
                 id="path4632-1"
                 style="color:#000000;clip-rule:nonzero;display:inline;overflow:visible;visibility:visible;opacity:1;isolation:auto;mix-blend-mode:normal;color-interpolation:sRGB;color-interpolation-filters:linearRGB;solid-color:#000000;solid-opacity:1;fill:#404040;fill-opacity:1;fill-rule:nonzero;stroke:none;stroke-width:0.24725468;stroke-linecap:butt;stroke-linejoin:round;stroke-miterlimit:4;stroke-dasharray:none;stroke-dashoffset:0;stroke-opacity:1;color-rendering:auto;image-rendering:auto;shape-rendering:auto;text-rendering:auto;enable-background:accumulate" />
              <path
                 inkscape:connector-curvature="0"
                 id="path4682-9"
                 d="m 424.56811,-236.10174 a 16.426154,16.426154 0 0 0 -16.42622,16.42579 h 0.58393 a 15.842148,15.842148 0 0 1 15.84229,-15.84186 15.842148,15.842148 0 0 1 15.84188,15.84186 h 0.58435 a 16.426154,16.426154 0 0 0 -16.42623,-16.42579 z"
                 style="color:#000000;clip-rule:nonzero;display:inline;overflow:visible;visibility:visible;opacity:1;isolation:auto;mix-blend-mode:normal;color-interpolation:sRGB;color-interpolation-filters:linearRGB;solid-color:#000000;solid-opacity:1;fill:#003399;fill-opacity:1;fill-rule:nonzero;stroke:#000000;stroke-width:1.86908126;stroke-linecap:round;stroke-linejoin:round;stroke-miterlimit:4;stroke-dasharray:none;stroke-dashoffset:0;stroke-opacity:1;color-rendering:auto;image-rendering:auto;shape-rendering:auto;text-rendering:auto;enable-background:accumulate" />
            </g>
          </g>
          <g
             inkscape:label="Capa 1"
             id="layer1-7"
             transform="matrix(0.84251512,0,0,0.84251512,821.81871,-625.16219)">
            <path
               style="color:#000000;display:inline;overflow:visible;visibility:visible;opacity:1;fill:#000000;fill-opacity:0.50196078;fill-rule:nonzero;stroke:none;stroke-width:2.60991836;stroke-linecap:square;stroke-linejoin:miter;stroke-miterlimit:4;stroke-dasharray:none;stroke-opacity:1;marker:none;enable-background:accumulate"
               d="m -273.47481,474.34283 c 0.0571,1.20833 0.23084,2.41698 0.0843,3.62531 l -5.98618,-2.44519 c 0.76196,0.83192 1.4394,1.66449 1.94406,2.49674 -6.6761,0.27234 -12.24872,5.283 -13.18224,11.95297 -0.66509,0.13617 -1.52171,0.17183 -3.44591,-0.11347 0.41859,12.00581 10.70645,15.92 17.18589,15.92811 6.221,-0.1459 12.38414,-4.73607 13.63633,-11.28024 1.07174,0.43768 2.2081,0.6643 3.35454,0.66852 5.26805,0 9.53864,-4.59114 9.53867,-10.25411 0,-5.66394 -4.27059,-10.25476 -9.53867,-10.25476 -3.73282,0 -7.11687,2.34663 -8.66649,5.98945 l -4.92436,-6.31528 z m -21.65002,11.0053 c -0.026,0 -0.0535,0 -0.0795,0.0324 -0.42766,0.11348 -0.57696,0.95286 -0.33345,1.87523 0.24348,0.92335 0.78763,1.57988 1.21536,1.46705 0.4277,-0.11023 0.57704,-0.95252 0.33355,-1.87555 -0.22662,-0.85819 -0.7175,-1.49753 -1.1359,-1.47872 z"
               id="path4136-4-3"
               inkscape:connector-curvature="0"
               sodipodi:nodetypes="cccccccccsscccccccccc" />
            <path
               style="color:#000000;display:inline;overflow:visible;visibility:visible;opacity:1;fill:#404040;fill-opacity:1;fill-rule:nonzero;stroke:none;stroke-width:2.60991836;stroke-linecap:square;stroke-linejoin:miter;stroke-miterlimit:4;stroke-dasharray:none;stroke-opacity:1;marker:none;enable-background:accumulate"
               d="m -273.47481,473.64095 c 0.0571,1.20833 0.23084,2.41698 0.0843,3.62531 l -5.98618,-2.44519 c 0.76196,0.83192 1.4394,1.66449 1.94406,2.49674 -6.6761,0.27234 -12.24872,5.283 -13.18224,11.95297 -0.66509,0.13617 -1.52171,0.17183 -3.44591,-0.11347 0.41859,12.00581 10.70645,15.92 17.18589,15.92811 6.221,-0.1459 12.38414,-4.73607 13.63633,-11.28024 1.07174,0.43768 2.2081,0.6643 3.35454,0.66852 5.26805,0 9.53864,-4.59114 9.53867,-10.25411 0,-5.66394 -4.27059,-10.25476 -9.53867,-10.25476 -3.73282,0 -7.11687,2.34663 -8.66649,5.98945 l -4.92436,-6.31528 z m -21.65002,11.0053 c -0.026,0 -0.0535,0 -0.0795,0.0324 -0.42766,0.11348 -0.57696,0.95286 -0.33345,1.87523 0.24348,0.92335 0.78763,1.57988 1.21536,1.46705 0.4277,-0.11023 0.57704,-0.95252 0.33355,-1.87555 -0.22662,-0.85819 -0.7175,-1.49753 -1.1359,-1.47872 z"
               id="path4136-4"
               inkscape:connector-curvature="0"
               sodipodi:nodetypes="cccccccccsscccccccccc" />
          </g>
        </g>
      </g>
    </g>
  </g>
</svg>
