<?xml version="1.0" encoding="UTF-8" standalone="no"?>
<!-- Created with Inkscape (http://www.inkscape.org/) -->

<svg
   xmlns:dc="http://purl.org/dc/elements/1.1/"
   xmlns:cc="http://creativecommons.org/ns#"
   xmlns:rdf="http://www.w3.org/1999/02/22-rdf-syntax-ns#"
   xmlns:svg="http://www.w3.org/2000/svg"
   xmlns="http://www.w3.org/2000/svg"
   xmlns:sodipodi="http://sodipodi.sourceforge.net/DTD/sodipodi-0.dtd"
   xmlns:inkscape="http://www.inkscape.org/namespaces/inkscape"
   inkscape:version="0.92.0 unknown"
   version="1.1"
   id="svg5210"
   viewBox="0 0 63.999998 63.999997"
   height="63.999996"
   width="63.999996"
   sodipodi:docname="utilities.svg">
  <defs
     id="defs5212" />
  <sodipodi:namedview
     inkscape:window-maximized="1"
     inkscape:window-y="0"
     inkscape:window-x="1920"
     inkscape:window-height="1031"
     inkscape:window-width="1920"
     inkscape:snap-nodes="false"
     inkscape:snap-midpoints="true"
     inkscape:snap-smooth-nodes="true"
     inkscape:object-nodes="true"
     inkscape:snap-intersection-paths="true"
     inkscape:object-paths="true"
     inkscape:guide-bbox="true"
     showguides="true"
     showgrid="false"
     inkscape:current-layer="layer1"
     inkscape:document-units="px"
     inkscape:cy="-25.029994"
     inkscape:cx="32.097339"
     inkscape:zoom="4.0298682"
     inkscape:pageshadow="2"
     inkscape:pageopacity="1"
     borderopacity="1.0"
     bordercolor="#666666"
     pagecolor="#8c577d"
     id="base"
     fit-margin-top="0"
     fit-margin-left="0"
     fit-margin-right="0"
     fit-margin-bottom="0"
     units="px">
    <inkscape:grid
       type="xygrid"
       id="grid5880"
       originx="305.00001"
       originy="-531" />
    <sodipodi:guide
       position="84.618154,53.847915"
       orientation="0,1"
       id="guide5882"
       inkscape:locked="false" />
    <sodipodi:guide
       position="10.000003,54.000007"
       orientation="1,0"
       id="guide5884"
       inkscape:locked="false" />
    <sodipodi:guide
       position="10.000003,9.0000072"
       orientation="0,1"
       id="guide5886"
       inkscape:locked="false" />
    <sodipodi:guide
       position="55.000003,54.000007"
       orientation="1,0"
       id="guide5888"
       inkscape:locked="false" />
  </sodipodi:namedview>
  <metadata
     id="metadata5215">
    <rdf:RDF>
      <cc:Work
         rdf:about="">
        <dc:format>image/svg+xml</dc:format>
        <dc:type
           rdf:resource="http://purl.org/dc/dcmitype/StillImage" />
        <dc:title></dc:title>
      </cc:Work>
    </rdf:RDF>
  </metadata>
  <g
     inkscape:label="Capa 1"
     inkscape:groupmode="layer"
     id="layer1"
     transform="translate(305,-457.36221)">
    <path
       style="display:inline;opacity:0.5;fill:#000000;fill-opacity:1"
       d="m -257.21429,513.59953 c -0.52715,-0.142 -1.22339,-0.39062 -1.54664,-0.5525 -0.32342,-0.16187 -5.82902,-5.51991 -12.23494,-11.90677 l -11.6467,-11.61241 -1.81983,-0.0749 c -2.23878,-0.0921 -3.98753,-0.66275 -5.77517,-1.88422 -3.00529,-2.05344 -4.77669,-5.82 -4.42356,-9.4053 0.25348,-2.57198 0.0657,-2.61547 3.51964,0.81425 1.67158,1.65995 3.21822,3.1087 3.43689,3.2195 0.4976,0.25222 1.69835,0.26046 2.34123,0.0147 0.65226,-0.2481 3.45775,-3.00553 3.8076,-3.74241 0.37496,-0.7901 0.34919,-1.86879 -0.0591,-2.53265 -0.18486,-0.30028 -1.70638,-1.90685 -3.37993,-3.57016 l -3.04338,-3.02425 1.18678,-0.32126 c 1.6,-0.43313 4.49087,-0.30929 5.96479,0.25553 1.42515,0.54608 3.08114,1.65367 4.17041,2.78954 1.84132,1.91989 3.04815,5.35108 2.78482,7.91862 l -0.1215,1.17198 11.56496,11.58465 c 8.1402,8.15403 11.68693,11.8272 11.97686,12.40362 0.57509,1.1434 0.70001,3.32718 0.25807,4.50716 -0.77062,2.05659 -2.44235,3.52933 -4.50958,3.97295 -1.36015,0.29186 -1.26394,0.2929 -2.45237,-0.0271 z m 2.73918,-2.51687 c 1.35702,-0.58229 2.27835,-2.21275 2.05377,-3.63454 -0.49367,-3.12561 -4.66588,-3.93406 -6.26046,-1.21309 -0.79852,1.36256 -0.57854,3.28942 0.48512,4.25222 0.85434,0.77317 2.64133,1.05903 3.72157,0.59541 z m -39.43133,1.72675 c -0.46083,-0.46807 -0.83809,-0.90994 -0.83809,-0.98194 0,-0.0721 1.18203,-1.92929 2.62672,-4.1274 1.90913,-2.9047 2.74196,-4.02307 3.04815,-4.09381 0.23196,-0.0537 0.94955,-0.21682 1.5949,-0.36271 l 1.17332,-0.26532 3.32888,-3.32518 3.32854,-3.32515 1.08419,1.07271 1.08418,1.07273 -3.37025,3.36095 -3.37008,3.36096 -0.33622,1.53825 c -0.18485,0.84605 -0.36331,1.56216 -0.3963,1.5914 -0.0328,0.0291 -1.87335,1.24168 -4.08965,2.69434 l -4.02987,2.64126 z m 30.39147,-24.74939 -0.65487,-0.67067 6.09562,-6.17302 c 4.4001,-4.45602 6.09564,-6.28782 6.09564,-6.58579 0,-0.51853 -0.76914,-1.0639 -1.17792,-0.83516 -0.15596,0.0887 -3.01745,2.83373 -6.35354,6.1004 l -6.06592,5.9394 -0.77143,-0.74137 -0.7716,-0.74141 6.11434,-6.12409 c 3.36286,-3.36827 6.11435,-6.24644 6.11435,-6.39592 0,-0.53029 -0.56146,-1.10393 -1.02376,-1.04558 -0.30142,0.038 -2.38605,1.99995 -6.52658,6.14235 l -6.08365,6.08648 -0.6708,-0.69061 -0.67046,-0.69058 5.98629,-5.99317 c 6.70093,-6.70879 7.07146,-6.99246 9.10273,-6.96923 1.34176,0.0147 2.85459,0.68063 3.67675,1.61708 1.30285,1.4839 1.64022,3.9078 0.77504,5.56905 -0.27235,0.52308 -2.55677,2.93504 -6.4783,6.84026 l -6.05705,6.03226 z"
       id="path9122-1-3-6"
       inkscape:connector-curvature="0" />
    <path
       style="display:inline;fill:#ffffff;fill-opacity:1"
       d="m -257.21429,512.60693 c -0.52715,-0.142 -1.22339,-0.39062 -1.54664,-0.5525 -0.32342,-0.16187 -5.82902,-5.51991 -12.23494,-11.90677 l -11.6467,-11.61241 -1.81983,-0.0749 c -2.23878,-0.0921 -3.98753,-0.66275 -5.77517,-1.88422 -3.00529,-2.05344 -4.77669,-5.82 -4.42356,-9.4053 0.25348,-2.57198 0.0657,-2.61547 3.51964,0.81425 1.67158,1.65995 3.21822,3.1087 3.43689,3.2195 0.4976,0.25222 1.69835,0.26046 2.34123,0.0147 0.65226,-0.2481 3.45775,-3.00553 3.8076,-3.74241 0.37496,-0.7901 0.34919,-1.86879 -0.0591,-2.53265 -0.18486,-0.30028 -1.70638,-1.90685 -3.37993,-3.57016 l -3.04338,-3.02425 1.18678,-0.32126 c 1.6,-0.43313 4.49087,-0.30929 5.96479,0.25553 1.42515,0.54608 3.08114,1.65367 4.17041,2.78954 1.84132,1.91989 3.04815,5.35108 2.78482,7.91862 l -0.1215,1.17198 11.56496,11.58465 c 8.1402,8.15403 11.68693,11.8272 11.97686,12.40362 0.57509,1.1434 0.70001,3.32718 0.25807,4.50716 -0.77062,2.05659 -2.44235,3.52933 -4.50958,3.97295 -1.36015,0.29186 -1.26394,0.2929 -2.45237,-0.0271 z m 2.73918,-2.51687 c 1.35702,-0.58229 2.27835,-2.21275 2.05377,-3.63454 -0.49367,-3.12561 -4.66588,-3.93406 -6.26046,-1.21309 -0.79852,1.36256 -0.57854,3.28942 0.48512,4.25222 0.85434,0.77317 2.64133,1.05903 3.72157,0.59541 z m -39.43133,1.72675 c -0.46083,-0.46807 -0.83809,-0.90994 -0.83809,-0.98194 0,-0.0721 1.18203,-1.92929 2.62672,-4.1274 1.90913,-2.9047 2.74196,-4.02307 3.04815,-4.09381 0.23196,-0.0537 0.94955,-0.21682 1.5949,-0.36271 l 1.17332,-0.26532 3.32888,-3.32518 3.32854,-3.32515 1.08419,1.07271 1.08418,1.07273 -3.37025,3.36095 -3.37008,3.36096 -0.33622,1.53825 c -0.18485,0.84605 -0.36331,1.56216 -0.3963,1.5914 -0.0328,0.0291 -1.87335,1.24168 -4.08965,2.69434 l -4.02987,2.64126 z m 30.39147,-24.74939 -0.65487,-0.67067 6.09562,-6.17302 c 4.4001,-4.45602 6.09564,-6.28782 6.09564,-6.58579 0,-0.51853 -0.76914,-1.0639 -1.17792,-0.83516 -0.15596,0.0887 -3.01745,2.83373 -6.35354,6.1004 l -6.06592,5.9394 -0.77143,-0.74137 -0.7716,-0.74141 6.11434,-6.12409 c 3.36286,-3.36827 6.11435,-6.24644 6.11435,-6.39592 0,-0.53029 -0.56146,-1.10393 -1.02376,-1.04558 -0.30142,0.038 -2.38605,1.99995 -6.52658,6.14235 l -6.08365,6.08648 -0.6708,-0.69061 -0.67046,-0.69058 5.98629,-5.99317 c 6.70093,-6.70879 7.07146,-6.99246 9.10273,-6.96923 1.34176,0.0147 2.85459,0.68063 3.67675,1.61708 1.30285,1.4839 1.64022,3.9078 0.77504,5.56905 -0.27235,0.52308 -2.55677,2.93504 -6.4783,6.84026 l -6.05705,6.03226 z"
       id="path9122-1-3"
       inkscape:connector-curvature="0" />
  </g>
</svg>
