<?xml version="1.0" encoding="UTF-8" standalone="no"?>
<!-- Created with Inkscape (http://www.inkscape.org/) -->

<svg
   xmlns:dc="http://purl.org/dc/elements/1.1/"
   xmlns:cc="http://creativecommons.org/ns#"
   xmlns:rdf="http://www.w3.org/1999/02/22-rdf-syntax-ns#"
   xmlns:svg="http://www.w3.org/2000/svg"
   xmlns="http://www.w3.org/2000/svg"
   xmlns:sodipodi="http://sodipodi.sourceforge.net/DTD/sodipodi-0.dtd"
   xmlns:inkscape="http://www.inkscape.org/namespaces/inkscape"
   inkscape:version="0.92.1 unknown"
   version="1.1"
   id="svg5210"
   viewBox="0 0 32.000001 32"
   height="32"
   width="32"
   sodipodi:docname="audio_white.svg">
  <defs
     id="defs5212" />
  <sodipodi:namedview
     inkscape:window-maximized="1"
     inkscape:window-y="25"
     inkscape:window-x="0"
     inkscape:window-height="1006"
     inkscape:window-width="1920"
     inkscape:snap-nodes="false"
     inkscape:snap-midpoints="true"
     inkscape:snap-smooth-nodes="true"
     inkscape:object-nodes="true"
     inkscape:snap-intersection-paths="true"
     inkscape:object-paths="true"
     inkscape:guide-bbox="true"
     showguides="true"
     showgrid="false"
     inkscape:current-layer="layer1"
     inkscape:document-units="px"
     inkscape:cy="10.593216"
     inkscape:cx="-2.7798506"
     inkscape:zoom="11.398189"
     inkscape:pageshadow="2"
     inkscape:pageopacity="1"
     borderopacity="1.0"
     bordercolor="#666666"
     pagecolor="#8c577d"
     id="base"
     fit-margin-top="0"
     fit-margin-left="0"
     fit-margin-right="0"
     fit-margin-bottom="0"
     units="px">
    <inkscape:grid
       type="xygrid"
       id="grid5880"
       originx="305.00001"
       originy="-531" />
    <sodipodi:guide
       position="55.000003,54.000007"
       orientation="0,1"
       id="guide5882"
       inkscape:locked="false" />
    <sodipodi:guide
       position="10.000003,54.000007"
       orientation="1,0"
       id="guide5884"
       inkscape:locked="false" />
    <sodipodi:guide
       position="55.000003,54.000007"
       orientation="1,0"
       id="guide5888"
       inkscape:locked="false" />
  </sodipodi:namedview>
  <metadata
     id="metadata5215">
    <rdf:RDF>
      <cc:Work
         rdf:about="">
        <dc:format>image/svg+xml</dc:format>
        <dc:type
           rdf:resource="http://purl.org/dc/dcmitype/StillImage" />
        <dc:title></dc:title>
      </cc:Work>
    </rdf:RDF>
  </metadata>
  <g
     inkscape:label="Capa 1"
     inkscape:groupmode="layer"
     id="layer1"
     transform="translate(305,-489.36221)">
    <g
       id="g4490"
       transform="matrix(0.5,0,0,0.5,-152.5,260.55704)">
      <path
         sodipodi:nodetypes="ccccczccccsc"
         inkscape:connector-curvature="0"
         id="path5773-9-2"
         d="m -273.00123,471.85772 c -8.28927,8.1e-4 -15.00838,6.72128 -15.00759,15.01055 0.006,0.18247 0.0164,0.3648 0.0296,0.5469 -4.20328,1.48595 -7.0154,5.45769 -7.02078,9.91588 8.1e-4,5.81516 4.71603,10.52843 10.53116,10.5282 -0.30068,-10.67122 -3.72432,-32.46737 11.46734,-32.46737 15.19164,0 11.47035,19.75718 11.47035,32.46737 5.81513,2.3e-4 10.52975,-4.71304 10.53115,-10.5282 -0.006,-4.45556 -2.81492,-8.42532 -7.01482,-9.91288 0.0107,-0.18315 0.0192,-0.36647 0.0238,-0.5499 8e-4,-8.29043 -6.72011,-15.01133 -15.01053,-15.01055 z"
         style="color:#000000;clip-rule:nonzero;display:inline;overflow:visible;visibility:visible;opacity:0.5;isolation:auto;mix-blend-mode:normal;color-interpolation:sRGB;color-interpolation-filters:linearRGB;solid-color:#000000;solid-opacity:1;fill:#000000;fill-opacity:1;fill-rule:nonzero;stroke:none;stroke-width:3.4000001;stroke-linecap:butt;stroke-linejoin:miter;stroke-miterlimit:4;stroke-dasharray:none;stroke-dashoffset:0;stroke-opacity:1;color-rendering:auto;image-rendering:auto;shape-rendering:auto;text-rendering:auto;enable-background:accumulate" />
      <path
         sodipodi:nodetypes="ccccczccccsc"
         inkscape:connector-curvature="0"
         id="path5773-9"
         d="m -273.00123,471.36144 c -8.28927,8.1e-4 -15.00838,6.72128 -15.00759,15.01055 0.006,0.18247 0.0164,0.3648 0.0296,0.5469 -4.20328,1.48595 -7.0154,5.45769 -7.02078,9.91588 8.1e-4,5.81516 4.71603,10.52843 10.53116,10.5282 -0.30068,-10.67122 -3.72432,-32.46737 11.46734,-32.46737 15.19164,0 11.47035,19.75718 11.47035,32.46737 5.81513,2.3e-4 10.52975,-4.71304 10.53115,-10.5282 -0.006,-4.45556 -2.81492,-8.42532 -7.01482,-9.91288 0.0107,-0.18315 0.0192,-0.36647 0.0238,-0.5499 8e-4,-8.29043 -6.72011,-15.01133 -15.01053,-15.01055 z"
         style="color:#000000;clip-rule:nonzero;display:inline;overflow:visible;visibility:visible;opacity:1;isolation:auto;mix-blend-mode:normal;color-interpolation:sRGB;color-interpolation-filters:linearRGB;solid-color:#000000;solid-opacity:1;fill:#ffffff;fill-opacity:1;fill-rule:nonzero;stroke:none;stroke-width:3.4000001;stroke-linecap:butt;stroke-linejoin:miter;stroke-miterlimit:4;stroke-dasharray:none;stroke-dashoffset:0;stroke-opacity:1;color-rendering:auto;image-rendering:auto;shape-rendering:auto;text-rendering:auto;enable-background:accumulate" />
    </g>
  </g>
</svg>
