<?xml version="1.0" encoding="UTF-8" standalone="no"?>
<!-- Created with Inkscape (http://www.inkscape.org/) -->

<svg
   xmlns:dc="http://purl.org/dc/elements/1.1/"
   xmlns:cc="http://creativecommons.org/ns#"
   xmlns:rdf="http://www.w3.org/1999/02/22-rdf-syntax-ns#"
   xmlns:svg="http://www.w3.org/2000/svg"
   xmlns="http://www.w3.org/2000/svg"
   xmlns:sodipodi="http://sodipodi.sourceforge.net/DTD/sodipodi-0.dtd"
   xmlns:inkscape="http://www.inkscape.org/namespaces/inkscape"
   inkscape:version="0.92.1 unknown"
   version="1.1"
   id="svg5210"
   viewBox="0 0 32.000001 32"
   height="32"
   width="32"
   sodipodi:docname="education_white.svg">
  <defs
     id="defs5212" />
  <sodipodi:namedview
     inkscape:window-maximized="1"
     inkscape:window-y="0"
     inkscape:window-x="1920"
     inkscape:window-height="1031"
     inkscape:window-width="1920"
     inkscape:snap-nodes="false"
     inkscape:snap-midpoints="true"
     inkscape:snap-smooth-nodes="true"
     inkscape:object-nodes="true"
     inkscape:snap-intersection-paths="true"
     inkscape:object-paths="true"
     inkscape:guide-bbox="true"
     showguides="true"
     showgrid="false"
     inkscape:current-layer="layer1"
     inkscape:document-units="px"
     inkscape:cy="37.240828"
     inkscape:cx="79.113832"
     inkscape:zoom="4.0298682"
     inkscape:pageshadow="2"
     inkscape:pageopacity="1"
     borderopacity="1.0"
     bordercolor="#666666"
     pagecolor="#8c577d"
     id="base"
     fit-margin-top="0"
     fit-margin-left="0"
     fit-margin-right="0"
     fit-margin-bottom="0"
     units="px">
    <inkscape:grid
       type="xygrid"
       id="grid5880"
       originx="305.00001"
       originy="-531" />
    <sodipodi:guide
       position="84.618154,53.847915"
       orientation="0,1"
       id="guide5882"
       inkscape:locked="false" />
    <sodipodi:guide
       position="10.000003,54.000007"
       orientation="1,0"
       id="guide5884"
       inkscape:locked="false" />
    <sodipodi:guide
       position="10.000003,9.0000072"
       orientation="0,1"
       id="guide5886"
       inkscape:locked="false" />
    <sodipodi:guide
       position="55.000003,54.000007"
       orientation="1,0"
       id="guide5888"
       inkscape:locked="false" />
  </sodipodi:namedview>
  <metadata
     id="metadata5215">
    <rdf:RDF>
      <cc:Work
         rdf:about="">
        <dc:format>image/svg+xml</dc:format>
        <dc:type
           rdf:resource="http://purl.org/dc/dcmitype/StillImage" />
        <dc:title></dc:title>
      </cc:Work>
    </rdf:RDF>
  </metadata>
  <g
     inkscape:label="Capa 1"
     inkscape:groupmode="layer"
     id="layer1"
     transform="translate(305,-489.36221)">
    <g
       id="g4495"
       transform="matrix(0.5,0,0,0.5,-152.92996,259.79164)">
      <path
         sodipodi:nodetypes="cccccccccccccccccccccccccc"
         inkscape:connector-curvature="0"
         id="rect6165-4-2"
         d="m -272.39763,471.66794 -21.51971,23.45413 0.007,0.002 c -0.71821,0.81735 -1.09391,1.90957 -1.09391,3.24877 0,1.92375 1.25994,3.82221 2.70202,4.55802 l 23.41705,8.67607 18.88074,-22.98862 c 1.46479,-1.46479 0.46836,-2.79213 -0.77562,-1.54815 l -18.42957,22.13464 c -2.5668,-1.08032 -18.03291,-6.71316 -22.64968,-8.75127 -0.59096,-0.38847 -0.98276,-1.05489 -0.98266,-1.81493 -1.6e-4,-1.2 0.97237,-2.17299 2.17236,-2.1734 0.22265,5.3e-4 0.44231,0.0388 0.65305,0.1061 l 0.19365,0.0721 c 0.0487,0.0208 0.098,0.0404 0.14523,0.0648 l 0.006,-0.008 20.78631,7.72432 18.65001,-22.26341 c 0.56106,-0.56106 0.86183,-1.59881 -0.47074,-2.31966 l -21.69172,-8.17341 z m -0.46455,4.95863 16.80416,6.32037 -3.04172,3.57529 -16.97825,-6.34817 z"
         style="color:#000000;clip-rule:nonzero;display:inline;overflow:visible;visibility:visible;opacity:0.5;isolation:auto;mix-blend-mode:normal;color-interpolation:sRGB;color-interpolation-filters:linearRGB;solid-color:#000000;solid-opacity:1;fill:#000000;fill-opacity:1;fill-rule:nonzero;stroke:none;stroke-width:3.4000001;stroke-linecap:butt;stroke-linejoin:miter;stroke-miterlimit:4;stroke-dasharray:none;stroke-dashoffset:0;stroke-opacity:1;color-rendering:auto;image-rendering:auto;shape-rendering:auto;text-rendering:auto;enable-background:accumulate" />
      <path
         sodipodi:nodetypes="cccccccccccccccccccccccccc"
         inkscape:connector-curvature="0"
         id="rect6165-4"
         d="m -272.39763,470.67534 -21.51971,23.45413 0.007,0.002 c -0.71821,0.81735 -1.09391,1.90957 -1.09391,3.24877 0,1.92375 1.25994,3.82221 2.70202,4.55802 l 23.41705,8.67607 18.88074,-22.98862 c 1.46479,-1.46479 0.46836,-2.79213 -0.77562,-1.54815 l -18.42957,22.13464 c -2.5668,-1.08032 -18.03291,-6.71316 -22.64968,-8.75127 -0.59096,-0.38847 -0.98276,-1.05489 -0.98266,-1.81493 -1.6e-4,-1.2 0.97237,-2.17299 2.17236,-2.1734 0.22265,5.3e-4 0.44231,0.0388 0.65305,0.1061 l 0.19365,0.0721 c 0.0487,0.0208 0.098,0.0404 0.14523,0.0648 l 0.006,-0.008 20.78631,7.72432 18.65001,-22.26341 c 0.56106,-0.56106 0.86183,-1.59881 -0.47074,-2.31966 l -21.69172,-8.17341 z m -0.46455,4.95863 16.80416,6.32037 -3.04172,3.57529 -16.97825,-6.34817 z"
         style="color:#000000;clip-rule:nonzero;display:inline;overflow:visible;visibility:visible;opacity:1;isolation:auto;mix-blend-mode:normal;color-interpolation:sRGB;color-interpolation-filters:linearRGB;solid-color:#000000;solid-opacity:1;fill:#ffffff;fill-opacity:1;fill-rule:nonzero;stroke:none;stroke-width:3.4000001;stroke-linecap:butt;stroke-linejoin:miter;stroke-miterlimit:4;stroke-dasharray:none;stroke-dashoffset:0;stroke-opacity:1;color-rendering:auto;image-rendering:auto;shape-rendering:auto;text-rendering:auto;enable-background:accumulate" />
    </g>
  </g>
</svg>
