<?xml version="1.0" encoding="UTF-8" standalone="no"?>
<!-- Created with Inkscape (http://www.inkscape.org/) -->

<svg
   xmlns:dc="http://purl.org/dc/elements/1.1/"
   xmlns:cc="http://creativecommons.org/ns#"
   xmlns:rdf="http://www.w3.org/1999/02/22-rdf-syntax-ns#"
   xmlns:svg="http://www.w3.org/2000/svg"
   xmlns="http://www.w3.org/2000/svg"
   xmlns:sodipodi="http://sodipodi.sourceforge.net/DTD/sodipodi-0.dtd"
   xmlns:inkscape="http://www.inkscape.org/namespaces/inkscape"
   inkscape:version="0.92.1 unknown"
   version="1.1"
   id="svg5210"
   viewBox="0 0 32.000001 32"
   height="32"
   width="32"
   sodipodi:docname="graphics.svg">
  <defs
     id="defs5212" />
  <sodipodi:namedview
     inkscape:window-maximized="1"
     inkscape:window-y="25"
     inkscape:window-x="0"
     inkscape:window-height="1006"
     inkscape:window-width="1920"
     inkscape:snap-nodes="false"
     inkscape:snap-midpoints="true"
     inkscape:snap-smooth-nodes="true"
     inkscape:object-nodes="true"
     inkscape:snap-intersection-paths="true"
     inkscape:object-paths="true"
     inkscape:guide-bbox="true"
     showguides="true"
     showgrid="false"
     inkscape:current-layer="layer1"
     inkscape:document-units="px"
     inkscape:cy="8.1002304"
     inkscape:cx="5.5216617"
     inkscape:zoom="11.398189"
     inkscape:pageshadow="2"
     inkscape:pageopacity="1"
     borderopacity="1.0"
     bordercolor="#666666"
     pagecolor="#8c577d"
     id="base"
     fit-margin-top="0"
     fit-margin-left="0"
     fit-margin-right="0"
     fit-margin-bottom="0"
     units="px">
    <inkscape:grid
       type="xygrid"
       id="grid5880"
       originx="305.00001"
       originy="-531" />
    <sodipodi:guide
       position="84.618154,53.847915"
       orientation="0,1"
       id="guide5882"
       inkscape:locked="false" />
    <sodipodi:guide
       position="10.000003,54.000007"
       orientation="1,0"
       id="guide5884"
       inkscape:locked="false" />
    <sodipodi:guide
       position="10.000003,9.0000072"
       orientation="0,1"
       id="guide5886"
       inkscape:locked="false" />
    <sodipodi:guide
       position="55.000003,54.000007"
       orientation="1,0"
       id="guide5888"
       inkscape:locked="false" />
  </sodipodi:namedview>
  <metadata
     id="metadata5215">
    <rdf:RDF>
      <cc:Work
         rdf:about="">
        <dc:format>image/svg+xml</dc:format>
        <dc:type
           rdf:resource="http://purl.org/dc/dcmitype/StillImage" />
        <dc:title></dc:title>
      </cc:Work>
    </rdf:RDF>
  </metadata>
  <g
     inkscape:label="Capa 1"
     inkscape:groupmode="layer"
     id="layer1"
     transform="translate(305,-489.36221)">
    <g
       id="g4491"
       transform="matrix(0.5,0,0,0.5,-152.14436,260.18149)">
      <path
         sodipodi:nodetypes="cccccccsccsccc"
         inkscape:connector-curvature="0"
         id="path9088-0"
         d="m -253.1592,468.69443 c -5.84481,2.88151 -17.44173,3.85637 -16.59374,13.45703 0,0 -1.02198,-0.13838 -1.98243,0.57422 -0.2207,0.16376 -0.77578,0.65117 -1.50781,1.32227 0.81794,1.40067 2.77369,2.81649 4.29492,3.56055 0.43769,-0.91854 0.75625,-1.6053 0.82032,-1.70899 0.41858,-0.67772 -0.006,-1.30859 -0.006,-1.30859 2.44486,0.3795 5.05577,0.20843 8.29687,-1.75782 3.20426,-1.94389 5.70165,-7.26189 6.67773,-14.13867 z m -20.7539,15.98633 c -5.11119,4.77653 -17.50792,17.38146 -20.25195,25.96289 -0.53584,1.67574 1.20703,2.75848 3.08203,2.25195 11.22768,-4.46198 18.91985,-18.70325 21.72656,-24.45312 -1.56837,-0.82642 -3.65843,-2.22915 -4.55664,-3.76172 z"
         style="display:inline;opacity:0.5;fill:#000000;fill-rule:evenodd;stroke:none;stroke-width:1px;stroke-linecap:butt;stroke-linejoin:miter;stroke-opacity:1" />
      <path
         sodipodi:nodetypes="cccccccsccsccc"
         inkscape:connector-curvature="0"
         id="path9088"
         d="m -253.1592,467.70183 c -5.84481,2.88151 -17.44173,3.85637 -16.59374,13.45703 0,0 -1.02198,-0.13838 -1.98243,0.57422 -0.2207,0.16376 -0.77578,0.65117 -1.50781,1.32227 0.81794,1.40067 2.77369,2.81649 4.29492,3.56055 0.43769,-0.91854 0.75625,-1.6053 0.82032,-1.70899 0.41858,-0.67772 -0.006,-1.30859 -0.006,-1.30859 2.44486,0.3795 5.05577,0.20843 8.29687,-1.75782 3.20426,-1.94389 5.70165,-7.26189 6.67773,-14.13867 z m -20.7539,15.98633 c -5.11119,4.77653 -17.50792,17.38146 -20.25195,25.96289 -0.53584,1.67574 1.20703,2.75848 3.08203,2.25195 11.22768,-4.46198 18.91985,-18.70325 21.72656,-24.45312 -1.56837,-0.82642 -3.65843,-2.22915 -4.55664,-3.76172 z"
         style="display:inline;fill:#000000;fill-rule:evenodd;stroke:none;stroke-width:1px;stroke-linecap:butt;stroke-linejoin:miter;stroke-opacity:1;opacity:0.4" />
    </g>
  </g>
</svg>
