<?xml version="1.0" encoding="UTF-8" standalone="no"?>
<!-- Created with Inkscape (http://www.inkscape.org/) -->

<svg
   xmlns:dc="http://purl.org/dc/elements/1.1/"
   xmlns:cc="http://creativecommons.org/ns#"
   xmlns:rdf="http://www.w3.org/1999/02/22-rdf-syntax-ns#"
   xmlns:svg="http://www.w3.org/2000/svg"
   xmlns="http://www.w3.org/2000/svg"
   xmlns:sodipodi="http://sodipodi.sourceforge.net/DTD/sodipodi-0.dtd"
   xmlns:inkscape="http://www.inkscape.org/namespaces/inkscape"
   inkscape:version="0.92.1 unknown"
   version="1.1"
   id="svg5210"
   viewBox="0 0 32.000001 32"
   height="32"
   width="32"
   sodipodi:docname="lliurex_white.svg">
  <defs
     id="defs5212" />
  <sodipodi:namedview
     inkscape:window-maximized="1"
     inkscape:window-y="25"
     inkscape:window-x="0"
     inkscape:window-height="1006"
     inkscape:window-width="1920"
     inkscape:snap-nodes="true"
     inkscape:snap-midpoints="true"
     inkscape:snap-smooth-nodes="true"
     inkscape:object-nodes="true"
     inkscape:snap-intersection-paths="true"
     inkscape:object-paths="true"
     inkscape:guide-bbox="true"
     showguides="true"
     showgrid="false"
     inkscape:current-layer="layer1"
     inkscape:document-units="px"
     inkscape:cy="23.305827"
     inkscape:cx="1.1443034"
     inkscape:zoom="5.6990943"
     inkscape:pageshadow="2"
     inkscape:pageopacity="1"
     borderopacity="1.0"
     bordercolor="#666666"
     pagecolor="#8c577d"
     id="base"
     fit-margin-top="0"
     fit-margin-left="0"
     fit-margin-right="0"
     fit-margin-bottom="0"
     units="px">
    <inkscape:grid
       type="xygrid"
       id="grid5880"
       originx="305.00001"
       originy="-531" />
    <sodipodi:guide
       position="84.618154,53.847915"
       orientation="0,1"
       id="guide5882"
       inkscape:locked="false" />
    <sodipodi:guide
       position="10.000003,54.000007"
       orientation="1,0"
       id="guide5884"
       inkscape:locked="false" />
    <sodipodi:guide
       position="10.000003,9.0000072"
       orientation="0,1"
       id="guide5886"
       inkscape:locked="false" />
    <sodipodi:guide
       position="55.000003,54.000007"
       orientation="1,0"
       id="guide5888"
       inkscape:locked="false" />
  </sodipodi:namedview>
  <metadata
     id="metadata5215">
    <rdf:RDF>
      <cc:Work
         rdf:about="">
        <dc:format>image/svg+xml</dc:format>
        <dc:type
           rdf:resource="http://purl.org/dc/dcmitype/StillImage" />
        <dc:title></dc:title>
      </cc:Work>
    </rdf:RDF>
  </metadata>
  <g
     inkscape:label="Capa 1"
     inkscape:groupmode="layer"
     id="layer1"
     transform="translate(305,-489.36221)">
    <g
       id="g4491"
       transform="matrix(0.5,0,0,0.5,-152.5,260.50563)">
      <path
         sodipodi:nodetypes="cccccccccsscccccccccc"
         inkscape:connector-curvature="0"
         id="path4136-4-3"
         d="m -273.47481,474.34283 c 0.0571,1.20833 0.23084,2.41698 0.0843,3.62531 l -5.98618,-2.44519 c 0.76196,0.83192 1.4394,1.66449 1.94406,2.49674 -6.6761,0.27234 -12.24872,5.283 -13.18224,11.95297 -0.66509,0.13617 -1.52171,0.17183 -3.44591,-0.11347 0.41859,12.00581 10.70645,15.92 17.18589,15.92811 6.221,-0.1459 12.38414,-4.73607 13.63633,-11.28024 1.07174,0.43768 2.2081,0.6643 3.35454,0.66852 5.26805,0 9.53864,-4.59114 9.53867,-10.25411 0,-5.66394 -4.27059,-10.25476 -9.53867,-10.25476 -3.73282,0 -7.11687,2.34663 -8.66649,5.98945 l -4.92436,-6.31528 z m -21.65002,11.0053 c -0.026,0 -0.0535,0 -0.0795,0.0324 -0.42766,0.11348 -0.57696,0.95286 -0.33345,1.87523 0.24348,0.92335 0.78763,1.57988 1.21536,1.46705 0.4277,-0.11023 0.57704,-0.95252 0.33355,-1.87555 -0.22662,-0.85819 -0.7175,-1.49753 -1.1359,-1.47872 z"
         style="color:#000000;display:inline;overflow:visible;visibility:visible;opacity:1;fill:#000000;fill-opacity:0.50196078;fill-rule:nonzero;stroke:none;stroke-width:2.60991836;stroke-linecap:square;stroke-linejoin:miter;stroke-miterlimit:4;stroke-dasharray:none;stroke-opacity:1;marker:none;enable-background:accumulate" />
      <path
         sodipodi:nodetypes="cccccccccsscccccccccc"
         inkscape:connector-curvature="0"
         id="path4136-4"
         d="m -273.47481,473.64095 c 0.0571,1.20833 0.23084,2.41698 0.0843,3.62531 l -5.98618,-2.44519 c 0.76196,0.83192 1.4394,1.66449 1.94406,2.49674 -6.6761,0.27234 -12.24872,5.283 -13.18224,11.95297 -0.66509,0.13617 -1.52171,0.17183 -3.44591,-0.11347 0.41859,12.00581 10.70645,15.92 17.18589,15.92811 6.221,-0.1459 12.38414,-4.73607 13.63633,-11.28024 1.07174,0.43768 2.2081,0.6643 3.35454,0.66852 5.26805,0 9.53864,-4.59114 9.53867,-10.25411 0,-5.66394 -4.27059,-10.25476 -9.53867,-10.25476 -3.73282,0 -7.11687,2.34663 -8.66649,5.98945 l -4.92436,-6.31528 z m -21.65002,11.0053 c -0.026,0 -0.0535,0 -0.0795,0.0324 -0.42766,0.11348 -0.57696,0.95286 -0.33345,1.87523 0.24348,0.92335 0.78763,1.57988 1.21536,1.46705 0.4277,-0.11023 0.57704,-0.95252 0.33355,-1.87555 -0.22662,-0.85819 -0.7175,-1.49753 -1.1359,-1.47872 z"
         style="color:#000000;display:inline;overflow:visible;visibility:visible;opacity:1;fill:#ffffff;fill-opacity:1;fill-rule:nonzero;stroke:none;stroke-width:2.60991836;stroke-linecap:square;stroke-linejoin:miter;stroke-miterlimit:4;stroke-dasharray:none;stroke-opacity:1;marker:none;enable-background:accumulate" />
    </g>
  </g>
</svg>
