<?xml version="1.0" encoding="UTF-8" standalone="no"?>
<!-- Created with Inkscape (http://www.inkscape.org/) -->

<svg
   xmlns:dc="http://purl.org/dc/elements/1.1/"
   xmlns:cc="http://creativecommons.org/ns#"
   xmlns:rdf="http://www.w3.org/1999/02/22-rdf-syntax-ns#"
   xmlns:svg="http://www.w3.org/2000/svg"
   xmlns="http://www.w3.org/2000/svg"
   xmlns:sodipodi="http://sodipodi.sourceforge.net/DTD/sodipodi-0.dtd"
   xmlns:inkscape="http://www.inkscape.org/namespaces/inkscape"
   inkscape:version="0.92.1 unknown"
   version="1.1"
   id="svg5210"
   viewBox="0 0 32.000001 32"
   height="32"
   width="32"
   sodipodi:docname="system.svg">
  <defs
     id="defs5212" />
  <sodipodi:namedview
     inkscape:window-maximized="1"
     inkscape:window-y="25"
     inkscape:window-x="0"
     inkscape:window-height="1006"
     inkscape:window-width="1920"
     inkscape:snap-nodes="false"
     inkscape:snap-midpoints="true"
     inkscape:snap-smooth-nodes="true"
     inkscape:object-nodes="true"
     inkscape:snap-intersection-paths="true"
     inkscape:object-paths="true"
     inkscape:guide-bbox="true"
     showguides="true"
     showgrid="false"
     inkscape:current-layer="layer1"
     inkscape:document-units="px"
     inkscape:cy="8.9834619"
     inkscape:cx="-11.709286"
     inkscape:zoom="11.398189"
     inkscape:pageshadow="2"
     inkscape:pageopacity="1"
     borderopacity="1.0"
     bordercolor="#666666"
     pagecolor="#8c577d"
     id="base"
     fit-margin-top="0"
     fit-margin-left="0"
     fit-margin-right="0"
     fit-margin-bottom="0"
     units="px">
    <inkscape:grid
       type="xygrid"
       id="grid5880"
       originx="305.00001"
       originy="-531" />
    <sodipodi:guide
       position="84.618154,53.847915"
       orientation="0,1"
       id="guide5882"
       inkscape:locked="false" />
    <sodipodi:guide
       position="10.000003,54.000007"
       orientation="1,0"
       id="guide5884"
       inkscape:locked="false" />
    <sodipodi:guide
       position="10.000003,9.0000072"
       orientation="0,1"
       id="guide5886"
       inkscape:locked="false" />
    <sodipodi:guide
       position="55.000003,54.000007"
       orientation="1,0"
       id="guide5888"
       inkscape:locked="false" />
  </sodipodi:namedview>
  <metadata
     id="metadata5215">
    <rdf:RDF>
      <cc:Work
         rdf:about="">
        <dc:format>image/svg+xml</dc:format>
        <dc:type
           rdf:resource="http://purl.org/dc/dcmitype/StillImage" />
        <dc:title></dc:title>
      </cc:Work>
    </rdf:RDF>
  </metadata>
  <g
     inkscape:label="Capa 1"
     inkscape:groupmode="layer"
     id="layer1"
     transform="translate(305,-489.36221)">
    <g
       id="g4491"
       transform="matrix(0.5,0,0,0.5,-152.84779,260.15691)">
      <path
         inkscape:connector-curvature="0"
         id="path9232-7"
         d="m -272.95843,468.99822 c -0.18262,-0.004 -0.37656,0.004 -0.58162,0.0119 -6.56573,0.31293 -0.66024,5.50857 -6.44043,8.63933 -5.77969,3.13076 -6.90592,-4.65346 -10.75484,0.67506 -3.84926,5.32849 3.89478,3.95072 2.73875,10.42157 -1.15587,6.47088 -7.94354,2.49757 -6.17738,8.8292 1.76632,6.3316 5.51713,-0.58125 9.8553,4.35701 4.33851,4.9383 -2.99999,7.76806 3.05142,10.33495 6.0516,2.56687 2.98526,-4.6764 9.55099,-4.98931 6.56605,-0.31292 4.20288,7.18902 9.98257,4.05823 5.77987,-3.13074 -1.79482,-5.24987 2.05428,-10.57835 3.84908,-5.32851 8.24114,1.19652 9.39701,-5.27436 1.15588,-6.47087 -5.22378,-1.86987 -6.98995,-8.20146 -1.76599,-6.3316 6.07387,-5.69711 1.73554,-10.63541 -4.33835,-4.93828 -4.71849,2.91812 -10.76992,0.3512 -5.8624,-2.48666 -0.99258,-7.94538 -6.65172,-7.99961 z m 0.28501,12.61432 a 9.9078108,9.9078108 0 0 1 9.90787,9.9079 9.9078108,9.9078108 0 0 1 -9.90787,9.90791 9.9078108,9.9078108 0 0 1 -9.90789,-9.90791 9.9078108,9.9078108 0 0 1 9.90789,-9.9079 z"
         style="color:#000000;clip-rule:nonzero;display:inline;overflow:visible;visibility:visible;opacity:0.5;isolation:auto;mix-blend-mode:normal;color-interpolation:sRGB;color-interpolation-filters:linearRGB;solid-color:#000000;solid-opacity:1;fill:#000000;fill-opacity:1;fill-rule:nonzero;stroke:none;stroke-width:3.4000001;stroke-linecap:butt;stroke-linejoin:miter;stroke-miterlimit:4;stroke-dasharray:none;stroke-dashoffset:0;stroke-opacity:1;color-rendering:auto;image-rendering:auto;shape-rendering:auto;text-rendering:auto;enable-background:accumulate" />
      <path
         inkscape:connector-curvature="0"
         id="path9232"
         d="m -272.95843,468.00562 c -0.18262,-0.004 -0.37656,0.004 -0.58162,0.0119 -6.56573,0.31293 -0.66024,5.50857 -6.44043,8.63933 -5.77969,3.13076 -6.90592,-4.65346 -10.75484,0.67506 -3.84926,5.32848 3.89478,3.95072 2.73875,10.42157 -1.15587,6.47088 -7.94354,2.49757 -6.17738,8.8292 1.76632,6.3316 5.51713,-0.58126 9.8553,4.35701 4.33851,4.9383 -2.99999,7.76805 3.05142,10.33494 6.0516,2.56687 2.98526,-4.67639 9.55099,-4.9893 6.56605,-0.31292 4.20288,7.18902 9.98257,4.05823 5.77987,-3.13075 -1.79482,-5.24987 2.05428,-10.57836 3.84908,-5.3285 8.24114,1.19652 9.39701,-5.27435 1.15588,-6.47088 -5.22378,-1.86987 -6.98995,-8.20147 -1.76599,-6.3316 6.07387,-5.6971 1.73554,-10.6354 -4.33835,-4.93828 -4.71849,2.91811 -10.76992,0.3512 -5.8624,-2.48666 -0.99258,-7.94538 -6.65172,-7.99961 z m 0.28501,12.61432 a 9.9078108,9.9078108 0 0 1 9.90787,9.9079 9.9078108,9.9078108 0 0 1 -9.90787,9.90791 9.9078108,9.9078108 0 0 1 -9.90789,-9.90791 9.9078108,9.9078108 0 0 1 9.90789,-9.9079 z"
         style="color:#000000;clip-rule:nonzero;display:inline;overflow:visible;visibility:visible;opacity:0.4;isolation:auto;mix-blend-mode:normal;color-interpolation:sRGB;color-interpolation-filters:linearRGB;solid-color:#000000;solid-opacity:1;fill:#000000;fill-opacity:1;fill-rule:nonzero;stroke:none;stroke-width:3.4000001;stroke-linecap:butt;stroke-linejoin:miter;stroke-miterlimit:4;stroke-dasharray:none;stroke-dashoffset:0;stroke-opacity:1;color-rendering:auto;image-rendering:auto;shape-rendering:auto;text-rendering:auto;enable-background:accumulate" />
    </g>
  </g>
</svg>
