<?xml version="1.0" encoding="UTF-8" standalone="no"?>
<!-- Created with Inkscape (http://www.inkscape.org/) -->

<svg
   xmlns:dc="http://purl.org/dc/elements/1.1/"
   xmlns:cc="http://creativecommons.org/ns#"
   xmlns:rdf="http://www.w3.org/1999/02/22-rdf-syntax-ns#"
   xmlns:svg="http://www.w3.org/2000/svg"
   xmlns="http://www.w3.org/2000/svg"
   xmlns:sodipodi="http://sodipodi.sourceforge.net/DTD/sodipodi-0.dtd"
   xmlns:inkscape="http://www.inkscape.org/namespaces/inkscape"
   inkscape:version="0.92.1 unknown"
   version="1.1"
   id="svg5210"
   viewBox="0 0 32.000001 32"
   height="32"
   width="32"
   sodipodi:docname="video.svg">
  <defs
     id="defs5212" />
  <sodipodi:namedview
     inkscape:window-maximized="1"
     inkscape:window-y="25"
     inkscape:window-x="0"
     inkscape:window-height="1006"
     inkscape:window-width="1920"
     inkscape:snap-nodes="false"
     inkscape:snap-midpoints="true"
     inkscape:snap-smooth-nodes="true"
     inkscape:object-nodes="true"
     inkscape:snap-intersection-paths="true"
     inkscape:object-paths="true"
     inkscape:guide-bbox="true"
     showguides="true"
     showgrid="false"
     inkscape:current-layer="layer1"
     inkscape:document-units="px"
     inkscape:cy="25.224141"
     inkscape:cx="9.4275707"
     inkscape:zoom="11.398189"
     inkscape:pageshadow="2"
     inkscape:pageopacity="1"
     borderopacity="1.0"
     bordercolor="#666666"
     pagecolor="#004395"
     id="base"
     fit-margin-top="0"
     fit-margin-left="0"
     fit-margin-right="0"
     fit-margin-bottom="0"
     units="px"
     borderlayer="true">
    <inkscape:grid
       type="xygrid"
       id="grid5880"
       originx="305.00001"
       originy="-531" />
    <sodipodi:guide
       position="84.618154,53.847915"
       orientation="0,1"
       id="guide5882"
       inkscape:locked="false" />
    <sodipodi:guide
       position="10.000003,54.000007"
       orientation="1,0"
       id="guide5884"
       inkscape:locked="false" />
    <sodipodi:guide
       position="10.000003,9.0000072"
       orientation="0,1"
       id="guide5886"
       inkscape:locked="false" />
    <sodipodi:guide
       position="55.000003,54.000007"
       orientation="1,0"
       id="guide5888"
       inkscape:locked="false" />
  </sodipodi:namedview>
  <metadata
     id="metadata5215">
    <rdf:RDF>
      <cc:Work
         rdf:about="">
        <dc:format>image/svg+xml</dc:format>
        <dc:type
           rdf:resource="http://purl.org/dc/dcmitype/StillImage" />
        <dc:title></dc:title>
      </cc:Work>
    </rdf:RDF>
  </metadata>
  <g
     inkscape:label="Capa 1"
     inkscape:groupmode="layer"
     id="layer1"
     transform="translate(305,-489.36221)">
    <g
       id="g4491"
       transform="matrix(0.5,0,0,0.5,-152.6605,260.22562)">
      <path
         sodipodi:nodetypes="cccccsscsssssssssssssssssssssssssssssssssssssssssscccccccccsscssssssssssssssscssssssscccsssssscsssssssss"
         inkscape:connector-curvature="0"
         id="rect4499-3"
         d="m -296.73953,472.73313 v 35.43103 h 48.12106 v -35.43103 z m 22.74928,1.94966 h 2.71089 c 0.85198,0 1.53898,0.68549 1.53897,1.53747 v 0.66795 c 0,0.85198 -0.68699,1.53897 -1.53897,1.53897 h -2.71089 c -0.85198,0 -1.53747,-0.68699 -1.53747,-1.53897 v -0.66795 c 0,-0.85198 0.68549,-1.53747 1.53747,-1.53747 z m 8.52079,0 h 2.71087 c 0.85199,0 1.53747,0.68549 1.53747,1.53747 v 0.66795 c 0,0.85198 -0.68549,1.53897 -1.53747,1.53897 h -2.71087 c -0.852,0 -1.53898,-0.68699 -1.53898,-1.53897 v -0.66795 c 0,-0.85198 0.68698,-1.53747 1.53898,-1.53747 z m -25.56084,0.002 h 2.71088 c 0.85199,0 1.53746,0.68549 1.53746,1.53747 v 0.66946 c 0,0.85198 -0.68547,1.53747 -1.53746,1.53747 h -2.71088 c -0.85198,0 -1.53748,-0.68549 -1.53748,-1.53747 v -0.66946 c 0,-0.85198 0.6855,-1.53747 1.53748,-1.53747 z m 8.52078,0.0662 h 2.71088 c 0.85199,0 1.53746,0.68548 1.53746,1.53746 v 0.66945 c 0,0.85199 -0.68547,1.53748 -1.53746,1.53748 h -2.71088 c -0.85199,0 -1.53898,-0.68549 -1.53898,-1.53748 v -0.66945 c 0,-0.85198 0.68699,-1.53746 1.53898,-1.53746 z m 25.55933,0.0677 h 2.71088 c 0.85199,0 1.53898,0.68549 1.53898,1.53747 v 0.66945 c 0,0.85199 -0.68699,1.53747 -1.53898,1.53747 h -2.71088 c -0.85199,0 -1.53747,-0.68548 -1.53747,-1.53747 v -0.66945 c 0,-0.85198 0.68548,-1.53747 1.53747,-1.53747 z m -35.59352,5.28186 h 39.81781 v 20.69719 h -39.81781 z m 14.58794,3.20131 v 14.29608 l 10.64193,-7.14879 z m 3.96552,19.4982 h 2.71089 c 0.85198,0 1.53898,0.68549 1.53897,1.53747 v 0.66945 c 0,0.85199 -0.68699,1.53747 -1.53897,1.53747 h -2.71089 c -0.85198,0 -1.53747,-0.68548 -1.53747,-1.53747 v -0.66945 c 0,-0.85198 0.68549,-1.53747 1.53747,-1.53747 z m 8.52079,0 h 2.71087 c 0.85199,0 1.53747,0.68549 1.53747,1.53747 v 0.66945 c 0,0.85199 -0.68549,1.53747 -1.53747,1.53747 h -2.71087 c -0.852,0 -1.53898,-0.68548 -1.53898,-1.53747 v -0.66945 c 0,-0.85198 0.68698,-1.53747 1.53898,-1.53747 z m -25.56084,0.002 h 2.71088 c 0.85199,0 1.53746,0.68548 1.53746,1.53747 v 0.66944 c 0,0.852 -0.68547,1.53747 -1.53746,1.53747 h -2.71088 c -0.85198,0 -1.53748,-0.68547 -1.53748,-1.53747 v -0.66944 c 0,-0.85199 0.6855,-1.53746 1.53748,-1.53747 z m 8.52078,0.0662 h 2.71088 c 0.85199,-1e-5 1.53746,0.6855 1.53746,1.53748 v 0.66945 c 0,0.85198 -0.68547,1.53746 -1.53746,1.53746 h -2.71088 c -0.85199,0 -1.53898,-0.68548 -1.53898,-1.53746 v -0.66945 c 0,-0.85198 0.68699,-1.53749 1.53898,-1.53748 z m 25.55933,0.0677 h 2.71088 c 0.85199,0 1.53898,0.68699 1.53898,1.53897 v 0.66795 c 0,0.85199 -0.68699,1.53747 -1.53898,1.53747 h -2.71088 c -0.85199,0 -1.53747,-0.68548 -1.53747,-1.53747 v -0.66795 c 0,-0.85198 0.68548,-1.53897 1.53747,-1.53897 z"
         style="color:#000000;clip-rule:nonzero;display:inline;overflow:visible;visibility:visible;opacity:0.5;isolation:auto;mix-blend-mode:normal;color-interpolation:sRGB;color-interpolation-filters:linearRGB;solid-color:#000000;solid-opacity:1;fill:#000000;fill-opacity:1;fill-rule:nonzero;stroke:none;stroke-width:3.4000001;stroke-linecap:butt;stroke-linejoin:miter;stroke-miterlimit:4;stroke-dasharray:none;stroke-dashoffset:0;stroke-opacity:1;color-rendering:auto;image-rendering:auto;shape-rendering:auto;text-rendering:auto;enable-background:accumulate" />
      <path
         sodipodi:nodetypes="cccccsscsssssssssssssssssssssssssssssssssssssssssscccccccccsscssssssssssssssscssssssscccsssssscsssssssss"
         inkscape:connector-curvature="0"
         id="rect4499"
         d="m -296.73953,472.38221 v 35.43103 h 48.12106 v -35.43103 z m 22.74928,1.94966 h 2.71089 c 0.85198,0 1.53898,0.68549 1.53897,1.53747 v 0.66795 c 0,0.85198 -0.68699,1.53897 -1.53897,1.53897 h -2.71089 c -0.85198,0 -1.53747,-0.68699 -1.53747,-1.53897 v -0.66795 c 0,-0.85198 0.68549,-1.53747 1.53747,-1.53747 z m 8.52079,0 h 2.71087 c 0.85199,0 1.53747,0.68549 1.53747,1.53747 v 0.66795 c 0,0.85198 -0.68549,1.53897 -1.53747,1.53897 h -2.71087 c -0.852,0 -1.53898,-0.68699 -1.53898,-1.53897 v -0.66795 c 0,-0.85198 0.68698,-1.53747 1.53898,-1.53747 z m -25.56084,0.002 h 2.71088 c 0.85199,0 1.53746,0.68549 1.53746,1.53747 v 0.66946 c 0,0.85198 -0.68547,1.53747 -1.53746,1.53747 h -2.71088 c -0.85198,0 -1.53748,-0.68549 -1.53748,-1.53747 v -0.66946 c 0,-0.85198 0.6855,-1.53747 1.53748,-1.53747 z m 8.52078,0.0662 h 2.71088 c 0.85199,0 1.53746,0.68548 1.53746,1.53746 v 0.66945 c 0,0.85199 -0.68547,1.53748 -1.53746,1.53748 h -2.71088 c -0.85199,0 -1.53898,-0.68549 -1.53898,-1.53748 v -0.66945 c 0,-0.85198 0.68699,-1.53746 1.53898,-1.53746 z m 25.55933,0.0677 h 2.71088 c 0.85199,0 1.53898,0.68549 1.53898,1.53747 v 0.66945 c 0,0.85199 -0.68699,1.53747 -1.53898,1.53747 h -2.71088 c -0.85199,0 -1.53747,-0.68548 -1.53747,-1.53747 v -0.66945 c 0,-0.85198 0.68548,-1.53747 1.53747,-1.53747 z m -35.59352,5.28186 h 39.81781 v 20.69719 h -39.81781 z m 14.58794,3.20131 v 14.29608 l 10.64193,-7.14879 z m 3.96552,19.4982 h 2.71089 c 0.85198,0 1.53898,0.68549 1.53897,1.53747 v 0.66945 c 0,0.85199 -0.68699,1.53747 -1.53897,1.53747 h -2.71089 c -0.85198,0 -1.53747,-0.68548 -1.53747,-1.53747 v -0.66945 c 0,-0.85198 0.68549,-1.53747 1.53747,-1.53747 z m 8.52079,0 h 2.71087 c 0.85199,0 1.53747,0.68549 1.53747,1.53747 v 0.66945 c 0,0.85199 -0.68549,1.53747 -1.53747,1.53747 h -2.71087 c -0.852,0 -1.53898,-0.68548 -1.53898,-1.53747 v -0.66945 c 0,-0.85198 0.68698,-1.53747 1.53898,-1.53747 z m -25.56084,0.002 h 2.71088 c 0.85199,0 1.53746,0.68548 1.53746,1.53747 v 0.66944 c 0,0.852 -0.68547,1.53747 -1.53746,1.53747 h -2.71088 c -0.85198,0 -1.53748,-0.68547 -1.53748,-1.53747 v -0.66944 c 0,-0.85199 0.6855,-1.53746 1.53748,-1.53747 z m 8.52078,0.0662 h 2.71088 c 0.85199,-10e-6 1.53746,0.6855 1.53746,1.53748 v 0.66945 c 0,0.85198 -0.68547,1.53746 -1.53746,1.53746 h -2.71088 c -0.85199,0 -1.53898,-0.68548 -1.53898,-1.53746 v -0.66945 c 0,-0.85198 0.68699,-1.53749 1.53898,-1.53748 z m 25.55933,0.0677 h 2.71088 c 0.85199,0 1.53898,0.68699 1.53898,1.53897 v 0.66795 c 0,0.85199 -0.68699,1.53747 -1.53898,1.53747 h -2.71088 c -0.85199,0 -1.53747,-0.68548 -1.53747,-1.53747 v -0.66795 c 0,-0.85198 0.68548,-1.53897 1.53747,-1.53897 z"
         style="color:#000000;clip-rule:nonzero;display:inline;overflow:visible;visibility:visible;opacity:0.4;isolation:auto;mix-blend-mode:normal;color-interpolation:sRGB;color-interpolation-filters:linearRGB;solid-color:#000000;solid-opacity:1;fill:#000000;fill-opacity:1;fill-rule:nonzero;stroke:none;stroke-width:3.4000001;stroke-linecap:butt;stroke-linejoin:miter;stroke-miterlimit:4;stroke-dasharray:none;stroke-dashoffset:0;stroke-opacity:1;color-rendering:auto;image-rendering:auto;shape-rendering:auto;text-rendering:auto;enable-background:accumulate" />
    </g>
  </g>
</svg>
