<?xml version="1.0" encoding="UTF-8" standalone="no"?>
<!-- Created with Inkscape (http://www.inkscape.org/) -->

<svg
   xmlns:dc="http://purl.org/dc/elements/1.1/"
   xmlns:cc="http://creativecommons.org/ns#"
   xmlns:rdf="http://www.w3.org/1999/02/22-rdf-syntax-ns#"
   xmlns:svg="http://www.w3.org/2000/svg"
   xmlns="http://www.w3.org/2000/svg"
   xmlns:sodipodi="http://sodipodi.sourceforge.net/DTD/sodipodi-0.dtd"
   xmlns:inkscape="http://www.inkscape.org/namespaces/inkscape"
   height="31.462715"
   width="25.139175"
   viewBox="0 0 6.6514068 8.3245101"
   version="1.1"
   id="svg4"
   inkscape:version="0.92.0 unknown"
   sodipodi:docname="l.svg">
  <defs
     id="defs8" />
  <sodipodi:namedview
     pagecolor="#ffffff"
     bordercolor="#666666"
     borderopacity="1"
     objecttolerance="10"
     gridtolerance="10"
     guidetolerance="10"
     inkscape:pageopacity="0"
     inkscape:pageshadow="2"
     inkscape:window-width="1920"
     inkscape:window-height="1031"
     id="namedview6"
     showgrid="false"
     fit-margin-top="0"
     fit-margin-left="0"
     fit-margin-right="0"
     fit-margin-bottom="0"
     units="px"
     inkscape:zoom="3.3638608"
     inkscape:cx="42.463241"
     inkscape:cy="25.573637"
     inkscape:window-x="1920"
     inkscape:window-y="0"
     inkscape:window-maximized="1"
     inkscape:current-layer="svg4" />
  <metadata
     id="metadata2">
    <rdf:RDF>
      <cc:Work
         rdf:about="">
        <dc:format>image/svg+xml</dc:format>
        <dc:type
           rdf:resource="http://purl.org/dc/dcmitype/StillImage" />
        <dc:title></dc:title>
      </cc:Work>
    </rdf:RDF>
  </metadata>
  <path
     inkscape:connector-curvature="0"
     id="path3628"
     style="font-style:normal;font-variant:normal;font-weight:normal;font-stretch:normal;font-size:medium;line-height:25px;font-family:'Arial Black';-inkscape-font-specification:'Arial Black, ';letter-spacing:0px;word-spacing:0px;fill:#ffffff;fill-opacity:1;stroke:#000000;stroke-width:0.308887;stroke-linecap:butt;stroke-linejoin:miter;stroke-miterlimit:4;stroke-dasharray:none;stroke-opacity:1"
     d="m 0.1544435,0.1544435 h 2.47687 v 6.041783 h 3.86565 v 1.97384 h -6.34252 z" />
  <path
     inkscape:connector-curvature="0"
     id="path3632"
     style="font-style:normal;font-variant:normal;font-weight:normal;font-stretch:normal;font-size:medium;line-height:25px;font-family:'Arial Black';-inkscape-font-specification:'Arial Black, ';letter-spacing:0px;word-spacing:0px;fill:#ffffff;fill-opacity:1;stroke:#000000;stroke-width:0.308887;stroke-linecap:butt;stroke-linejoin:miter;stroke-miterlimit:4;stroke-dasharray:none;stroke-opacity:1"
     d="m 25.094559,-16.459651 h 2.48233 v 8.0156231 h -2.48233 z" />
  <path
     inkscape:connector-curvature="0"
     id="path3634"
     style="font-style:normal;font-variant:normal;font-weight:normal;font-stretch:normal;font-size:medium;line-height:25px;font-family:'Arial Black';-inkscape-font-specification:'Arial Black, ';letter-spacing:0px;word-spacing:0px;fill:#ffffff;fill-opacity:1;stroke:#000000;stroke-width:0.308887;stroke-linecap:butt;stroke-linejoin:miter;stroke-miterlimit:4;stroke-dasharray:none;stroke-opacity:1"
     d="m 34.564579,-16.459651 h 2.47139 v 4.778753 q 0,0.7108 -0.22418,1.34505 -0.2187,0.6287801 -0.69438,1.1044701 -0.47023,0.47022 -0.98966,0.66159 -0.72173,0.26792 -1.73326,0.26792 -0.58503,0 -1.27943,-0.082 -0.68892,-0.082 -1.15368,-0.32259 -0.46477,-0.24605 -0.85297,-0.6944 -0.38274,-0.44835 -0.5249,-0.9240401 -0.22963,-0.76547 -0.22963,-1.35598 v -4.778753 h 2.47138 v 4.893573 q 0,0.65612 0.36088,1.02792 0.36633,0.36634 1.01152,0.36634 0.63971,0 1.00058,-0.36087 0.36634,-0.36633 0.36634,-1.03339 z" />
  <path
     inkscape:connector-curvature="0"
     id="path3636"
     style="font-style:normal;font-variant:normal;font-weight:normal;font-stretch:normal;font-size:medium;line-height:25px;font-family:'Arial Black';-inkscape-font-specification:'Arial Black, ';letter-spacing:0px;word-spacing:0px;fill:#ffffff;fill-opacity:1;stroke:#000000;stroke-width:0.308887;stroke-linecap:butt;stroke-linejoin:miter;stroke-miterlimit:4;stroke-dasharray:none;stroke-opacity:1"
     d="m 38.719999,-8.4440279 v -8.0156231 h 4.1281 q 1.14823,0 1.75515,0.196838 0.60689,0.196835 0.97872,0.732667 0.37179,0.530365 0.37179,1.295842 0,0.667056 -0.28431,1.153679 -0.28434,0.481156 -0.78189,0.781879 -0.31712,0.191368 -0.86937,0.317128 0.4429,0.14763 0.64519,0.29525 0.1367,0.0984 0.39369,0.42101 0.26245,0.3226 0.34993,0.49756 l 1.19741,2.3237701 h -2.79945 l -1.32319,-2.4495201 q -0.2515,-0.47569 -0.44833,-0.61785 -0.26794,-0.1859 -0.60693,-0.1859 h -0.21869 v 3.2532701 z m 2.48782,-4.7678211 h 1.04431 q 0.16951,0 0.65613,-0.109352 0.24605,-0.04921 0.39915,-0.251514 0.15856,-0.202306 0.15856,-0.464754 0,-0.388203 -0.24604,-0.595976 -0.24605,-0.207772 -0.92405,-0.207772 h -1.08806 z" />
  <path
     inkscape:connector-curvature="0"
     id="path3638"
     style="font-style:normal;font-variant:normal;font-weight:normal;font-stretch:normal;font-size:medium;line-height:25px;font-family:'Arial Black';-inkscape-font-specification:'Arial Black, ';letter-spacing:0px;word-spacing:0px;fill:#ffffff;fill-opacity:1;stroke:#000000;stroke-width:0.308887;stroke-linecap:butt;stroke-linejoin:miter;stroke-miterlimit:4;stroke-dasharray:none;stroke-opacity:1"
     d="m 47.386299,-16.459651 h 6.63775 v 1.711384 h -4.15542 v 1.273969 h 3.8547 v 1.63484 h -3.8547 v 1.58016 h 4.27571 v 1.8152701 h -6.75804 z" />
  <path
     inkscape:connector-curvature="0"
     id="path3640"
     style="font-style:normal;font-variant:normal;font-weight:normal;font-stretch:normal;font-size:medium;line-height:25px;font-family:'Arial Black';-inkscape-font-specification:'Arial Black, ';letter-spacing:0px;word-spacing:0px;fill:#ffffff;fill-opacity:1;stroke:#000000;stroke-width:0.308887;stroke-linecap:butt;stroke-linejoin:miter;stroke-miterlimit:4;stroke-dasharray:none;stroke-opacity:1"
     d="m 54.931689,-16.459651 h 2.72837 l 1.42159,2.465923 1.37787,-2.465923 h 2.70102 l -2.49325,3.882054 2.72838,4.1335691 h -2.78305 l -1.58018,-2.5752801 -1.58561,2.5752801 h -2.76664 l 2.76664,-4.1773101 z" />
</svg>
