<?xml version="1.0" encoding="UTF-8" standalone="no"?>
<!-- Created with Inkscape (http://www.inkscape.org/) -->

<svg
   xmlns:dc="http://purl.org/dc/elements/1.1/"
   xmlns:cc="http://creativecommons.org/ns#"
   xmlns:rdf="http://www.w3.org/1999/02/22-rdf-syntax-ns#"
   xmlns:svg="http://www.w3.org/2000/svg"
   xmlns="http://www.w3.org/2000/svg"
   xmlns:sodipodi="http://sodipodi.sourceforge.net/DTD/sodipodi-0.dtd"
   xmlns:inkscape="http://www.inkscape.org/namespaces/inkscape"
   width="32"
   height="32"
   viewBox="0 0 32 32.000001"
   id="svg17580"
   version="1.1"
   inkscape:version="0.91 r13725"
   sodipodi:docname="llx-store_over.svg">
  <defs
     id="defs17582" />
  <sodipodi:namedview
     id="base"
     pagecolor="#7f7f7f"
     bordercolor="#666666"
     borderopacity="1.0"
     inkscape:pageopacity="0"
     inkscape:pageshadow="2"
     inkscape:zoom="7.9195959"
     inkscape:cx="24.152276"
     inkscape:cy="5.6847634"
     inkscape:document-units="px"
     inkscape:current-layer="layer1"
     showgrid="false"
     units="px"
     inkscape:window-width="1280"
     inkscape:window-height="716"
     inkscape:window-x="0"
     inkscape:window-y="24"
     inkscape:window-maximized="1"
     borderlayer="true" />
  <metadata
     id="metadata17585">
    <rdf:RDF>
      <cc:Work
         rdf:about="">
        <dc:format>image/svg+xml</dc:format>
        <dc:type
           rdf:resource="http://purl.org/dc/dcmitype/StillImage" />
        <dc:title />
      </cc:Work>
    </rdf:RDF>
  </metadata>
  <g
     inkscape:label="Capa 1"
     inkscape:groupmode="layer"
     id="layer1"
     transform="translate(0,-1020.3622)">
    <rect
       style="fill:#000000"
       id="rect3359"
       width="33.713844"
       height="33.966381"
       x="-0.88388354"
       y="1019.406" />
    <circle
       style="opacity:0.50159744;fill:#448aff;fill-opacity:1;fill-rule:evenodd;stroke:none;stroke-width:1px;stroke-linecap:butt;stroke-linejoin:miter;stroke-opacity:1"
       id="path3439"
       cx="16"
       cy="1036.3622"
       r="15.59423" />
    <g
       id="g18144"
       transform="matrix(0.40682316,0,0,0.40682316,-97.607967,1010.1813)">
      <g
         id="g16263"
         transform="matrix(0.9797449,0,0,0.9797449,-3121.8022,-2211.0743)"
         style="display:inline">
        <g
           id="g4962"
           transform="matrix(0.84469602,0,0,0.84469602,935.78887,339.40555)">
          <path
             sodipodi:nodetypes="cccccccccc"
             inkscape:connector-curvature="0"
             id="path4895-3"
             d="m 2847.302,2302.93 -33.4365,27.8479 -1.846,50.8767 64.3509,-16.8595 14.6459,-45.4162 z m 1.0667,7.7702 24.3004,6.3627 -47.701,13.5651 z"
             style="display:inline;fill:#bfbfbf;fill-rule:evenodd;stroke:none;stroke-width:1px;stroke-linecap:butt;stroke-linejoin:miter;stroke-opacity:1" />
          <path
             id="path4895-3-2"
             d="m 2859.5878,2302.2051 -29.555,31.9376 4.7483,50.6884 61.6306,-25.0389 -4.108,-42.2344 -32.7158,-15.3527 z m 2.0625,7.5671 20.1823,8.8768 -41.254,12.4668 21.0717,-21.3436 z"
             style="display:inline;fill:#ffffff;fill-rule:evenodd;stroke:none;stroke-width:1px;stroke-linecap:butt;stroke-linejoin:miter;stroke-opacity:1"
             inkscape:connector-curvature="0" />
          <path
             inkscape:connector-curvature="0"
             id="path4960"
             d="m 2831.5838,2334.2372 -17.4588,-3.5 -1.5,51.375 22.5,2.75 z"
             style="fill:#ffffff;fill-rule:evenodd;stroke:none;stroke-width:1px;stroke-linecap:butt;stroke-linejoin:miter;stroke-opacity:1"
             sodipodi:nodetypes="ccccc" />
        </g>
        <path
           style="font-style:normal;font-weight:normal;font-size:medium;line-height:125%;font-family:sans-serif;letter-spacing:0px;word-spacing:0px;fill:#6699ff;fill-opacity:1;stroke:none;stroke-width:1px;stroke-linecap:butt;stroke-linejoin:miter;stroke-opacity:1"
           d="m 3371.4651,2305.9436 c 0,0 0,0.01 0,0.01 -1.0858,-0.115 -2.1469,-0.1411 -3.1848,-0.074 -1.0488,0.068 -2.078,0.2312 -3.0888,0.4898 -2.4031,0.6153 -4.2755,1.7243 -5.59,3.341 -1.3321,1.649 -1.9098,3.598 -1.7075,5.8383 0.1766,1.9538 0.857,3.3216 2.0349,4.0863 1.1705,0.76 2.9509,1.0091 5.3075,0.7549 0,0 1.8846,-0.2131 1.8846,-0.2131 1.5468,-0.163 2.6736,-0.011 3.3954,0.4527 0.7286,0.4582 1.1643,1.2925 1.3111,2.5089 0.1695,1.4021 -0.1486,2.6577 -0.9624,3.7692 -0.8254,1.127 -2.0977,2.0287 -3.8359,2.7032 -1.1641,0.4519 -2.3866,0.7095 -3.6652,0.7693 -1.2936,0.06 -2.649,-0.076 -4.0656,-0.4078 0,0 0.3471,3.823 0.3471,3.823 1.4562,0.023 2.8322,-0.076 4.1297,-0.2933 1.2921,-0.2191 2.4796,-0.55 3.5668,-0.9904 2.8196,-1.142 4.8218,-2.6258 6.052,-4.4501 1.213,-1.7888 1.6573,-3.8638 1.3547,-6.2344 -0.2512,-1.9685 -0.9429,-3.3583 -2.0828,-4.1836 -1.1383,-0.8473 -2.8056,-1.1624 -5.0317,-0.9381 0,0 -1.8417,0.1557 -1.8417,0.1557 -1.6971,0.1774 -2.8917,0.082 -3.5626,-0.2885 -0.6644,-0.3863 -1.0521,-1.1343 -1.1603,-2.2404 -0.1286,-1.3107 0.2296,-2.4427 1.065,-3.3952 0.8343,-0.9429 2.0649,-1.6309 3.6778,-2.0674 0.9158,-0.2473 1.8711,-0.3623 2.8672,-0.3422 0.9867,0.02 2.0427,0.1683 3.1651,0.4421 0,0 -0.3776,-3.021 -0.3776,-3.021 0,0 0,0 0,0 m -29.0691,6.7397 c 0,0 -3.7911,0.9794 -3.7911,0.9794 0,0 1.3317,29.3134 1.3317,29.3134 0,0 17.2793,-6.9443 17.2793,-6.9443 0,0 -0.2717,-3.1961 -0.2717,-3.1961 0,0 -13.1766,5.0649 -13.1766,5.0649 0,0 -1.372,-25.2177 -1.372,-25.2177 0,0 4e-4,4e-4 4e-4,4e-4"
           id="path4968"
           inkscape:connector-curvature="0" />
      </g>
    </g>
    <rect
       style="fill:#ffffff;fill-rule:evenodd;stroke:none;stroke-width:1px;stroke-linecap:butt;stroke-linejoin:miter;stroke-opacity:1"
       id="rect3340"
       width="25.506351"
       height="2.9041886"
       x="3.2198613"
       y="1026.7296"
       ry="1.2017332" />
    <rect
       style="fill:#ffffff;fill-rule:evenodd;stroke:none;stroke-width:1px;stroke-linecap:butt;stroke-linejoin:miter;stroke-opacity:1;fill-opacity:1"
       id="rect3340-7"
       width="25.506351"
       height="2.9041886"
       x="3.2198613"
       y="1035.095"
       ry="1.2017332" />
    <rect
       style="fill:#ffffff;fill-rule:evenodd;stroke:none;stroke-width:1px;stroke-linecap:butt;stroke-linejoin:miter;stroke-opacity:1"
       id="rect3340-5"
       width="25.506351"
       height="2.9041886"
       x="3.2198613"
       y="1043.4603"
       ry="1.2017332" />
  </g>
</svg>
